solid OpenSCAD_Model
  facet normal -1 0 0
    outer loop
      vertex 0 0 0
      vertex 0 41.6 18.8
      vertex 0 41.6 0
    endloop
  endfacet
  facet normal -1 -0 0
    outer loop
      vertex 0 41.6 18.8
      vertex 0 0 0
      vertex 0 0 18.8
    endloop
  endfacet
  facet normal -0 0 1
    outer loop
      vertex 0.799999 40.8 0.799999
      vertex 16.3 0.799999 0.799999
      vertex 16.3 40.8 0.799999
    endloop
  endfacet
  facet normal 0 0 1
    outer loop
      vertex 16.3 0.799999 0.799999
      vertex 0.799999 40.8 0.799999
      vertex 0.799999 0.799999 0.799999
    endloop
  endfacet
  facet normal 1 -0 0
    outer loop
      vertex 17.1 0 18.8
      vertex 17.1 41.6 0
      vertex 17.1 41.6 18.8
    endloop
  endfacet
  facet normal 1 0 0
    outer loop
      vertex 17.1 41.6 0
      vertex 17.1 0 18.8
      vertex 17.1 0 0
    endloop
  endfacet
  facet normal 0 1 -0
    outer loop
      vertex 17.1 41.6 0
      vertex 0 41.6 18.8
      vertex 17.1 41.6 18.8
    endloop
  endfacet
  facet normal 0 1 0
    outer loop
      vertex 0 41.6 18.8
      vertex 17.1 41.6 0
      vertex 0 41.6 0
    endloop
  endfacet
  facet normal 0 0 -1
    outer loop
      vertex 0 0 0
      vertex 17.1 41.6 0
      vertex 17.1 0 0
    endloop
  endfacet
  facet normal -0 0 -1
    outer loop
      vertex 17.1 41.6 0
      vertex 0 0 0
      vertex 0 41.6 0
    endloop
  endfacet
  facet normal 0 -1 0
    outer loop
      vertex 0 0 18.8
      vertex 4.8 0 4.8
      vertex 4.8 0 18.8
    endloop
  endfacet
  facet normal 0 -1 -0
    outer loop
      vertex 4.8 0 4.8
      vertex 0 0 0
      vertex 12.3 0 4.8
    endloop
  endfacet
  facet normal 0 -1 0
    outer loop
      vertex 0 0 0
      vertex 4.8 0 4.8
      vertex 0 0 18.8
    endloop
  endfacet
  facet normal 0 -1 0
    outer loop
      vertex 12.3 0 4.8
      vertex 17.1 0 18.8
      vertex 12.3 0 18.8
    endloop
  endfacet
  facet normal 0 -1 0
    outer loop
      vertex 12.3 0 4.8
      vertex 17.1 0 0
      vertex 17.1 0 18.8
    endloop
  endfacet
  facet normal 0 -1 0
    outer loop
      vertex 17.1 0 0
      vertex 12.3 0 4.8
      vertex 0 0 0
    endloop
  endfacet
  facet normal 1 -0 0
    outer loop
      vertex 0.799999 0.799999 18.8
      vertex 0.799999 40.8 0.799999
      vertex 0.799999 40.8 18.8
    endloop
  endfacet
  facet normal 1 0 0
    outer loop
      vertex 0.799999 40.8 0.799999
      vertex 0.799999 0.799999 18.8
      vertex 0.799999 0.799999 0.799999
    endloop
  endfacet
  facet normal 0 0 1
    outer loop
      vertex 17.1 41.6 18.8
      vertex 16.3 40.8 18.8
      vertex 17.1 0 18.8
    endloop
  endfacet
  facet normal 0 0 1
    outer loop
      vertex 17.1 41.6 18.8
      vertex 0.799999 40.8 18.8
      vertex 16.3 40.8 18.8
    endloop
  endfacet
  facet normal 0 0 1
    outer loop
      vertex 0.799999 40.8 18.8
      vertex 0 41.6 18.8
      vertex 0.799999 0.799999 18.8
    endloop
  endfacet
  facet normal -0 0 1
    outer loop
      vertex 0 41.6 18.8
      vertex 0.799999 40.8 18.8
      vertex 17.1 41.6 18.8
    endloop
  endfacet
  facet normal -0 0 1
    outer loop
      vertex 16.3 0.799999 18.8
      vertex 17.1 0 18.8
      vertex 16.3 40.8 18.8
    endloop
  endfacet
  facet normal 0 0 1
    outer loop
      vertex 12.3 0 18.8
      vertex 16.3 0.799999 18.8
      vertex 12.3 0.799999 18.8
    endloop
  endfacet
  facet normal 0 0 1
    outer loop
      vertex 16.3 0.799999 18.8
      vertex 12.3 0 18.8
      vertex 17.1 0 18.8
    endloop
  endfacet
  facet normal -0 0 1
    outer loop
      vertex 0.799999 0.799999 18.8
      vertex 4.8 0 18.8
      vertex 4.8 0.799999 18.8
    endloop
  endfacet
  facet normal 0 0 1
    outer loop
      vertex 0.799999 0.799999 18.8
      vertex 0 0 18.8
      vertex 4.8 0 18.8
    endloop
  endfacet
  facet normal 0 0 1
    outer loop
      vertex 0 0 18.8
      vertex 0.799999 0.799999 18.8
      vertex 0 41.6 18.8
    endloop
  endfacet
  facet normal 1 -0 0
    outer loop
      vertex 4.8 0 18.8
      vertex 4.8 0.799999 4.8
      vertex 4.8 0.799999 18.8
    endloop
  endfacet
  facet normal 1 0 0
    outer loop
      vertex 4.8 0.799999 4.8
      vertex 4.8 0 18.8
      vertex 4.8 0 4.8
    endloop
  endfacet
  facet normal 0 1 0
    outer loop
      vertex 16.3 0.799999 18.8
      vertex 12.3 0.799999 4.8
      vertex 12.3 0.799999 18.8
    endloop
  endfacet
  facet normal 0 1 0
    outer loop
      vertex 12.3 0.799999 4.8
      vertex 16.3 0.799999 0.799999
      vertex 4.8 0.799999 4.8
    endloop
  endfacet
  facet normal 0 1 -0
    outer loop
      vertex 16.3 0.799999 0.799999
      vertex 12.3 0.799999 4.8
      vertex 16.3 0.799999 18.8
    endloop
  endfacet
  facet normal 0 1 -0
    outer loop
      vertex 4.8 0.799999 4.8
      vertex 0.799999 0.799999 18.8
      vertex 4.8 0.799999 18.8
    endloop
  endfacet
  facet normal 0 1 0
    outer loop
      vertex 4.8 0.799999 4.8
      vertex 0.799999 0.799999 0.799999
      vertex 0.799999 0.799999 18.8
    endloop
  endfacet
  facet normal 0 1 0
    outer loop
      vertex 0.799999 0.799999 0.799999
      vertex 4.8 0.799999 4.8
      vertex 16.3 0.799999 0.799999
    endloop
  endfacet
  facet normal -0 0 1
    outer loop
      vertex 4.8 0.799999 4.8
      vertex 12.3 0 4.8
      vertex 12.3 0.799999 4.8
    endloop
  endfacet
  facet normal 0 0 1
    outer loop
      vertex 12.3 0 4.8
      vertex 4.8 0.799999 4.8
      vertex 4.8 0 4.8
    endloop
  endfacet
  facet normal -1 0 0
    outer loop
      vertex 12.3 0 4.8
      vertex 12.3 0.799999 18.8
      vertex 12.3 0.799999 4.8
    endloop
  endfacet
  facet normal -1 -0 0
    outer loop
      vertex 12.3 0.799999 18.8
      vertex 12.3 0 4.8
      vertex 12.3 0 18.8
    endloop
  endfacet
  facet normal -1 0 0
    outer loop
      vertex 16.3 0.799999 0.799999
      vertex 16.3 40.8 18.8
      vertex 16.3 40.8 0.799999
    endloop
  endfacet
  facet normal -1 -0 0
    outer loop
      vertex 16.3 40.8 18.8
      vertex 16.3 0.799999 0.799999
      vertex 16.3 0.799999 18.8
    endloop
  endfacet
  facet normal 0 -1 0
    outer loop
      vertex 0.799999 40.8 0.799999
      vertex 16.3 40.8 18.8
      vertex 0.799999 40.8 18.8
    endloop
  endfacet
  facet normal 0 -1 -0
    outer loop
      vertex 16.3 40.8 18.8
      vertex 0.799999 40.8 0.799999
      vertex 16.3 40.8 0.799999
    endloop
  endfacet
  facet normal -1 0 0
    outer loop
      vertex 30 0 0
      vertex 30 41.6 0.799999
      vertex 30 41.6 0
    endloop
  endfacet
  facet normal -1 -0 0
    outer loop
      vertex 30 41.6 0.799999
      vertex 30 0 0
      vertex 30 0 0.799999
    endloop
  endfacet
  facet normal 0 0 1
    outer loop
      vertex 45.5 40 0.799999
      vertex 43.1 8.6 0.799999
      vertex 45.5 1.6 0.799999
    endloop
  endfacet
  facet normal 0 0 1
    outer loop
      vertex 45.5 40 0.799999
      vertex 34 8.6 0.799999
      vertex 43.1 8.6 0.799999
    endloop
  endfacet
  facet normal -0 0 1
    outer loop
      vertex 31.6 40 0.799999
      vertex 34 8.6 0.799999
      vertex 45.5 40 0.799999
    endloop
  endfacet
  facet normal 0 0 1
    outer loop
      vertex 31.6 1.6 0.799999
      vertex 34 8.6 0.799999
      vertex 31.6 40 0.799999
    endloop
  endfacet
  facet normal 0 0 1
    outer loop
      vertex 34 8.6 0.799999
      vertex 31.6 1.6 0.799999
      vertex 34 1.6 0.799999
    endloop
  endfacet
  facet normal 0 0 1
    outer loop
      vertex 45.5 1.6 0.799999
      vertex 43.1 8.6 0.799999
      vertex 43.1 1.6 0.799999
    endloop
  endfacet
  facet normal 0 0 1
    outer loop
      vertex 47.1 41.6 0.799999
      vertex 46.3 40.8 0.799999
      vertex 47.1 0 0.799999
    endloop
  endfacet
  facet normal 0 0 1
    outer loop
      vertex 47.1 41.6 0.799999
      vertex 30.8 40.8 0.799999
      vertex 46.3 40.8 0.799999
    endloop
  endfacet
  facet normal 0 0 1
    outer loop
      vertex 30.8 40.8 0.799999
      vertex 30 41.6 0.799999
      vertex 30.8 0.799999 0.799999
    endloop
  endfacet
  facet normal -0 0 1
    outer loop
      vertex 30 41.6 0.799999
      vertex 30.8 40.8 0.799999
      vertex 47.1 41.6 0.799999
    endloop
  endfacet
  facet normal -0 0 1
    outer loop
      vertex 46.3 0.799999 0.799999
      vertex 47.1 0 0.799999
      vertex 46.3 40.8 0.799999
    endloop
  endfacet
  facet normal 0 0 1
    outer loop
      vertex 42.3 0 0.799999
      vertex 46.3 0.799999 0.799999
      vertex 42.3 0.799999 0.799999
    endloop
  endfacet
  facet normal 0 0 1
    outer loop
      vertex 46.3 0.799999 0.799999
      vertex 42.3 0 0.799999
      vertex 47.1 0 0.799999
    endloop
  endfacet
  facet normal -0 0 1
    outer loop
      vertex 30.8 0.799999 0.799999
      vertex 34.8 0 0.799999
      vertex 34.8 0.799999 0.799999
    endloop
  endfacet
  facet normal 0 0 1
    outer loop
      vertex 30.8 0.799999 0.799999
      vertex 30 0 0.799999
      vertex 34.8 0 0.799999
    endloop
  endfacet
  facet normal 0 0 1
    outer loop
      vertex 30 0 0.799999
      vertex 30.8 0.799999 0.799999
      vertex 30 41.6 0.799999
    endloop
  endfacet
  facet normal 1 -0 0
    outer loop
      vertex 47.1 0 0.799999
      vertex 47.1 41.6 0
      vertex 47.1 41.6 0.799999
    endloop
  endfacet
  facet normal 1 0 0
    outer loop
      vertex 47.1 41.6 0
      vertex 47.1 0 0.799999
      vertex 47.1 0 0
    endloop
  endfacet
  facet normal 0 1 -0
    outer loop
      vertex 47.1 41.6 0
      vertex 30 41.6 0.799999
      vertex 47.1 41.6 0.799999
    endloop
  endfacet
  facet normal 0 1 0
    outer loop
      vertex 30 41.6 0.799999
      vertex 47.1 41.6 0
      vertex 30 41.6 0
    endloop
  endfacet
  facet normal 0 0 -1
    outer loop
      vertex 34.8 0 0
      vertex 30 0 0
      vertex 34.8 7.8 0
    endloop
  endfacet
  facet normal 0 0 -1
    outer loop
      vertex 42.3 7.8 0
      vertex 47.1 0 0
      vertex 42.3 0 0
    endloop
  endfacet
  facet normal 0 0 -1
    outer loop
      vertex 47.1 0 0
      vertex 42.3 7.8 0
      vertex 47.1 41.6 0
    endloop
  endfacet
  facet normal 0 0 -1
    outer loop
      vertex 34.8 7.8 0
      vertex 47.1 41.6 0
      vertex 42.3 7.8 0
    endloop
  endfacet
  facet normal 0 0 -1
    outer loop
      vertex 30 41.6 0
      vertex 34.8 7.8 0
      vertex 30 0 0
    endloop
  endfacet
  facet normal 0 0 -1
    outer loop
      vertex 34.8 7.8 0
      vertex 30 41.6 0
      vertex 47.1 41.6 0
    endloop
  endfacet
  facet normal 0 -1 0
    outer loop
      vertex 42.3 0 0
      vertex 47.1 0 0.799999
      vertex 42.3 0 0.799999
    endloop
  endfacet
  facet normal 0 -1 -0
    outer loop
      vertex 47.1 0 0.799999
      vertex 42.3 0 0
      vertex 47.1 0 0
    endloop
  endfacet
  facet normal 0 -1 0
    outer loop
      vertex 30 0 0
      vertex 34.8 0 0.799999
      vertex 30 0 0.799999
    endloop
  endfacet
  facet normal 0 -1 -0
    outer loop
      vertex 34.8 0 0.799999
      vertex 30 0 0
      vertex 34.8 0 0
    endloop
  endfacet
  facet normal 1 -0 0
    outer loop
      vertex 34.8 0.799999 0.799999
      vertex 34.8 7.8 0
      vertex 34.8 7.8 0.799999
    endloop
  endfacet
  facet normal 1 0 0
    outer loop
      vertex 34.8 0 0
      vertex 34.8 0.799999 0.799999
      vertex 34.8 0 0.799999
    endloop
  endfacet
  facet normal 1 0 0
    outer loop
      vertex 34.8 0.799999 0.799999
      vertex 34.8 0 0
      vertex 34.8 7.8 0
    endloop
  endfacet
  facet normal -1 0 0
    outer loop
      vertex 42.3 7.8 0
      vertex 42.3 0.799999 0.799999
      vertex 42.3 7.8 0.799999
    endloop
  endfacet
  facet normal -1 0 0
    outer loop
      vertex 42.3 0 0
      vertex 42.3 0.799999 0.799999
      vertex 42.3 7.8 0
    endloop
  endfacet
  facet normal -1 -0 0
    outer loop
      vertex 42.3 0.799999 0.799999
      vertex 42.3 0 0
      vertex 42.3 0 0.799999
    endloop
  endfacet
  facet normal 0 -1 0
    outer loop
      vertex 34.8 7.8 0
      vertex 42.3 7.8 0.799999
      vertex 34.8 7.8 0.799999
    endloop
  endfacet
  facet normal 0 -1 -0
    outer loop
      vertex 42.3 7.8 0.799999
      vertex 34.8 7.8 0
      vertex 42.3 7.8 0
    endloop
  endfacet
  facet normal -1 0 0
    outer loop
      vertex 30.8 0.799999 0.799999
      vertex 30.8 40.8 2.3
      vertex 30.8 40.8 0.799999
    endloop
  endfacet
  facet normal -1 -0 0
    outer loop
      vertex 30.8 40.8 2.3
      vertex 30.8 0.799999 0.799999
      vertex 30.8 0.799999 2.3
    endloop
  endfacet
  facet normal 0 0 1
    outer loop
      vertex 46.3 40.8 2.3
      vertex 45.5 40 2.3
      vertex 46.3 0.799999 2.3
    endloop
  endfacet
  facet normal 0 0 1
    outer loop
      vertex 46.3 40.8 2.3
      vertex 31.6 40 2.3
      vertex 45.5 40 2.3
    endloop
  endfacet
  facet normal 0 0 1
    outer loop
      vertex 31.6 40 2.3
      vertex 30.8 40.8 2.3
      vertex 31.6 1.6 2.3
    endloop
  endfacet
  facet normal -0 0 1
    outer loop
      vertex 30.8 40.8 2.3
      vertex 31.6 40 2.3
      vertex 46.3 40.8 2.3
    endloop
  endfacet
  facet normal -0 0 1
    outer loop
      vertex 45.5 1.6 2.3
      vertex 46.3 0.799999 2.3
      vertex 45.5 40 2.3
    endloop
  endfacet
  facet normal 0 0 1
    outer loop
      vertex 43.1 0.799999 2.3
      vertex 45.5 1.6 2.3
      vertex 43.1 1.6 2.3
    endloop
  endfacet
  facet normal 0 0 1
    outer loop
      vertex 45.5 1.6 2.3
      vertex 43.1 0.799999 2.3
      vertex 46.3 0.799999 2.3
    endloop
  endfacet
  facet normal -0 0 1
    outer loop
      vertex 31.6 1.6 2.3
      vertex 34 0.799999 2.3
      vertex 34 1.6 2.3
    endloop
  endfacet
  facet normal 0 0 1
    outer loop
      vertex 31.6 1.6 2.3
      vertex 30.8 0.799999 2.3
      vertex 34 0.799999 2.3
    endloop
  endfacet
  facet normal 0 0 1
    outer loop
      vertex 30.8 0.799999 2.3
      vertex 31.6 1.6 2.3
      vertex 30.8 40.8 2.3
    endloop
  endfacet
  facet normal 1 -0 0
    outer loop
      vertex 34.8 0.799999 15.3
      vertex 34.8 7.8 0.799999
      vertex 34.8 7.8 15.3
    endloop
  endfacet
  facet normal 1 0 0
    outer loop
      vertex 34.8 7.8 0.799999
      vertex 34.8 0.799999 15.3
      vertex 34.8 0.799999 0.799999
    endloop
  endfacet
  facet normal 0 1 -0
    outer loop
      vertex 34 1.6 0.799999
      vertex 31.6 1.6 2.3
      vertex 34 1.6 2.3
    endloop
  endfacet
  facet normal 0 1 0
    outer loop
      vertex 31.6 1.6 2.3
      vertex 34 1.6 0.799999
      vertex 31.6 1.6 0.799999
    endloop
  endfacet
  facet normal 0 -1 0
    outer loop
      vertex 30.8 0.799999 2.3
      vertex 30.8 0.799999 0.799999
      vertex 34 0.799999 2.3
    endloop
  endfacet
  facet normal 0 -1 0
    outer loop
      vertex 34 0.799999 2.3
      vertex 34.8 0.799999 15.3
      vertex 34 0.799999 15.3
    endloop
  endfacet
  facet normal 0 -1 0
    outer loop
      vertex 34 0.799999 2.3
      vertex 34.8 0.799999 0.799999
      vertex 34.8 0.799999 15.3
    endloop
  endfacet
  facet normal 0 -1 0
    outer loop
      vertex 34.8 0.799999 0.799999
      vertex 34 0.799999 2.3
      vertex 30.8 0.799999 0.799999
    endloop
  endfacet
  facet normal -1 0 0
    outer loop
      vertex 34 1.6 2.3
      vertex 34 8.6 0.799999
      vertex 34 1.6 0.799999
    endloop
  endfacet
  facet normal -1 0 0
    outer loop
      vertex 34 8.6 0.799999
      vertex 34 1.6 2.3
      vertex 34 8.6 15.3
    endloop
  endfacet
  facet normal -1 0 0
    outer loop
      vertex 34 0.799999 15.3
      vertex 34 1.6 2.3
      vertex 34 0.799999 2.3
    endloop
  endfacet
  facet normal -1 0 0
    outer loop
      vertex 34 1.6 2.3
      vertex 34 0.799999 15.3
      vertex 34 8.6 15.3
    endloop
  endfacet
  facet normal 0 0 1
    outer loop
      vertex 43.1 8.6 15.3
      vertex 42.3 7.8 15.3
      vertex 43.1 0.799999 15.3
    endloop
  endfacet
  facet normal 0 0 1
    outer loop
      vertex 43.1 8.6 15.3
      vertex 34.8 7.8 15.3
      vertex 42.3 7.8 15.3
    endloop
  endfacet
  facet normal -0 0 1
    outer loop
      vertex 34 8.6 15.3
      vertex 34.8 7.8 15.3
      vertex 43.1 8.6 15.3
    endloop
  endfacet
  facet normal 0 0 1
    outer loop
      vertex 34 0.799999 15.3
      vertex 34.8 7.8 15.3
      vertex 34 8.6 15.3
    endloop
  endfacet
  facet normal 0 0 1
    outer loop
      vertex 34.8 7.8 15.3
      vertex 34 0.799999 15.3
      vertex 34.8 0.799999 15.3
    endloop
  endfacet
  facet normal 0 0 1
    outer loop
      vertex 43.1 0.799999 15.3
      vertex 42.3 7.8 15.3
      vertex 42.3 0.799999 15.3
    endloop
  endfacet
  facet normal 0 1 -0
    outer loop
      vertex 43.1 8.6 0.799999
      vertex 34 8.6 15.3
      vertex 43.1 8.6 15.3
    endloop
  endfacet
  facet normal 0 1 0
    outer loop
      vertex 34 8.6 15.3
      vertex 43.1 8.6 0.799999
      vertex 34 8.6 0.799999
    endloop
  endfacet
  facet normal -1 0 0
    outer loop
      vertex 42.3 0.799999 0.799999
      vertex 42.3 7.8 15.3
      vertex 42.3 7.8 0.799999
    endloop
  endfacet
  facet normal -1 -0 0
    outer loop
      vertex 42.3 7.8 15.3
      vertex 42.3 0.799999 0.799999
      vertex 42.3 0.799999 15.3
    endloop
  endfacet
  facet normal 0 -1 0
    outer loop
      vertex 34.8 7.8 0.799999
      vertex 42.3 7.8 15.3
      vertex 34.8 7.8 15.3
    endloop
  endfacet
  facet normal 0 -1 -0
    outer loop
      vertex 42.3 7.8 15.3
      vertex 34.8 7.8 0.799999
      vertex 42.3 7.8 0.799999
    endloop
  endfacet
  facet normal 1 0 0
    outer loop
      vertex 43.1 8.6 15.3
      vertex 43.1 1.6 2.3
      vertex 43.1 8.6 0.799999
    endloop
  endfacet
  facet normal 1 -0 0
    outer loop
      vertex 43.1 0.799999 15.3
      vertex 43.1 1.6 2.3
      vertex 43.1 8.6 15.3
    endloop
  endfacet
  facet normal 1 0 0
    outer loop
      vertex 43.1 1.6 2.3
      vertex 43.1 0.799999 15.3
      vertex 43.1 0.799999 2.3
    endloop
  endfacet
  facet normal 1 0 0
    outer loop
      vertex 43.1 8.6 0.799999
      vertex 43.1 1.6 2.3
      vertex 43.1 1.6 0.799999
    endloop
  endfacet
  facet normal 0 -1 0
    outer loop
      vertex 42.3 0.799999 15.3
      vertex 43.1 0.799999 2.3
      vertex 43.1 0.799999 15.3
    endloop
  endfacet
  facet normal 0 -1 0
    outer loop
      vertex 42.3 0.799999 0.799999
      vertex 43.1 0.799999 2.3
      vertex 42.3 0.799999 15.3
    endloop
  endfacet
  facet normal 0 -1 0
    outer loop
      vertex 46.3 0.799999 0.799999
      vertex 43.1 0.799999 2.3
      vertex 42.3 0.799999 0.799999
    endloop
  endfacet
  facet normal 0 -1 0
    outer loop
      vertex 43.1 0.799999 2.3
      vertex 46.3 0.799999 0.799999
      vertex 46.3 0.799999 2.3
    endloop
  endfacet
  facet normal 1 -0 0
    outer loop
      vertex 46.3 0.799999 2.3
      vertex 46.3 40.8 0.799999
      vertex 46.3 40.8 2.3
    endloop
  endfacet
  facet normal 1 0 0
    outer loop
      vertex 46.3 40.8 0.799999
      vertex 46.3 0.799999 2.3
      vertex 46.3 0.799999 0.799999
    endloop
  endfacet
  facet normal 0 1 -0
    outer loop
      vertex 45.5 1.6 0.799999
      vertex 43.1 1.6 2.3
      vertex 45.5 1.6 2.3
    endloop
  endfacet
  facet normal 0 1 0
    outer loop
      vertex 43.1 1.6 2.3
      vertex 45.5 1.6 0.799999
      vertex 43.1 1.6 0.799999
    endloop
  endfacet
  facet normal 0 1 -0
    outer loop
      vertex 46.3 40.8 0.799999
      vertex 30.8 40.8 2.3
      vertex 46.3 40.8 2.3
    endloop
  endfacet
  facet normal 0 1 0
    outer loop
      vertex 30.8 40.8 2.3
      vertex 46.3 40.8 0.799999
      vertex 30.8 40.8 0.799999
    endloop
  endfacet
  facet normal 0 -1 0
    outer loop
      vertex 31.6 40 0.799999
      vertex 45.5 40 2.3
      vertex 31.6 40 2.3
    endloop
  endfacet
  facet normal 0 -1 -0
    outer loop
      vertex 45.5 40 2.3
      vertex 31.6 40 0.799999
      vertex 45.5 40 0.799999
    endloop
  endfacet
  facet normal 1 -0 0
    outer loop
      vertex 31.6 1.6 2.3
      vertex 31.6 40 0.799999
      vertex 31.6 40 2.3
    endloop
  endfacet
  facet normal 1 0 0
    outer loop
      vertex 31.6 40 0.799999
      vertex 31.6 1.6 2.3
      vertex 31.6 1.6 0.799999
    endloop
  endfacet
  facet normal -1 0 0
    outer loop
      vertex 45.5 1.6 0.799999
      vertex 45.5 40 2.3
      vertex 45.5 40 0.799999
    endloop
  endfacet
  facet normal -1 -0 0
    outer loop
      vertex 45.5 40 2.3
      vertex 45.5 1.6 0.799999
      vertex 45.5 1.6 2.3
    endloop
  endfacet
endsolid OpenSCAD_Model
